<svg width="61" height="60" viewBox="0 0 61 60" fill="none" xmlns="http://www.w3.org/2000/svg">
<g id="shipping" clip-path="url(#clip0_108_2385)">
<path id="Vector" d="M56.0146 31.102V3.7797C56.0146 2.80495 55.2243 2.01471 54.2496 2.01471H6.96174C5.98699 2.01471 5.19675 2.80495 5.19675 3.7797V33.2801C4.34531 33.4041 3.51295 33.7346 2.77659 34.2813C0.455278 35.9273 -0.0937517 39.611 1.85068 41.8828L9.80055 51.5204C14.7216 57.2798 19.9491 57.9855 27.7205 57.9855C34.3894 57.9855 37.371 58.0149 43.1831 56.6906L48.8426 55.3369C49.7603 56.6184 51.2171 57.4486 52.8549 57.4486H55.6429C58.4129 57.4486 60.6666 55.0744 60.6666 52.1562V36.3785C60.6667 33.592 58.6116 31.3032 56.0146 31.102ZM48.0813 34.7327L45.7296 33.5382C41.863 31.5865 37.3925 31.5143 33.4648 33.3403C32.3932 33.7618 30.056 35.1759 28.8437 35.1286H20.6834C17.9766 35.1286 15.7743 37.3307 15.7743 40.0376V41.3248C15.7591 41.3088 15.7433 41.2936 15.7283 41.2774L9.90091 34.952C9.54827 34.5692 9.15209 34.249 8.72684 33.992V16.481H23.1707V22.951C23.1707 23.9258 23.9609 24.716 24.9357 24.716H36.0729C37.0476 24.716 37.8379 23.9258 37.8379 22.951V16.481H52.4847V31.1019C50.4225 31.2612 48.7029 32.7365 48.0813 34.7327ZM26.7006 16.481H34.3078V21.186H26.7006V16.481ZM52.4846 12.9511H37.8379V5.54469H52.4847V12.9511H52.4846ZM34.3079 5.54469V12.9512H26.7007V5.54469H34.3079ZM23.1706 5.54469V12.9512H8.72673V5.54469H23.1706ZM42.3639 53.2568C36.9948 54.4866 33.7612 54.4368 27.7838 54.4368C20.4885 54.4368 16.9636 54.3189 12.5238 49.2741L4.57394 39.6364C3.19113 37.8358 5.69577 35.7101 7.30473 37.3436L13.1321 43.6691C14.6723 45.2941 16.6103 46.1885 18.9991 46.2411H35.1556C36.1303 46.2411 36.9206 45.4509 36.9206 44.4761C36.9206 43.5014 36.1303 42.7111 35.1556 42.7111H19.3042V40.0374C19.3042 39.2771 19.9228 38.6584 20.6832 38.6584H28.8436C30.682 38.79 33.3355 37.255 34.9529 36.5411C37.8946 35.1733 41.2429 35.2275 44.135 36.6872L47.8314 38.5647V51.949L42.3639 53.2568ZM57.1367 52.1561C57.1367 53.1279 56.4666 53.9185 55.643 53.9185H52.855C52.0313 53.9185 51.3613 53.1279 51.3613 52.1561V36.3785C51.3613 35.4067 52.0315 34.616 52.855 34.616H55.643C56.4666 34.616 57.1367 35.4065 57.1367 36.3785V52.1561Z" fill="#242424"/>
</g>
<defs>
<clipPath id="clip0_108_2385">
<rect width="60" height="60" fill="white" transform="translate(0.666687)"/>
</clipPath>
</defs>
</svg>
