<svg width="17" height="13" viewBox="0 0 17 13" fill="none" xmlns="http://www.w3.org/2000/svg">
<path d="M8.3125 1.35075C9.09986 1.35075 9.85497 1.54394 10.4117 1.88781C10.9685 2.23168 11.2812 2.69806 11.2812 3.18437V3.55109H5.34375V3.18437C5.34375 2.69806 5.65653 2.23168 6.21328 1.88781C6.77003 1.54394 7.52514 1.35075 8.3125 1.35075ZM12.4688 3.55109V3.18437C12.4688 2.50354 12.0309 1.8506 11.2514 1.36918C10.472 0.887766 9.41481 0.61731 8.3125 0.61731C7.21019 0.61731 6.15304 0.887766 5.37359 1.36918C4.59414 1.8506 4.15625 2.50354 4.15625 3.18437V3.55109H0V10.8855C0 11.2746 0.250223 11.6477 0.695621 11.9228C1.14102 12.1979 1.74511 12.3524 2.375 12.3524H14.25C14.8799 12.3524 15.484 12.1979 15.9294 11.9228C16.3748 11.6477 16.625 11.2746 16.625 10.8855V3.55109H12.4688ZM1.1875 4.28453H15.4375V10.8855C15.4375 11.0801 15.3124 11.2666 15.0897 11.4042C14.867 11.5417 14.5649 11.619 14.25 11.619H2.375C2.06006 11.619 1.75801 11.5417 1.53531 11.4042C1.31261 11.2666 1.1875 11.0801 1.1875 10.8855V4.28453Z" fill="#9F9F9F"/>
</svg>
